<svg xmlns="http://www.w3.org/2000/svg" width="430" height="430" style="width:100%;height:100%;transform:translate3d(0,0,0);content-visibility:visible" viewBox="0 0 430 430"><defs><clipPath id="a"><path d="M0 0h430v430H0z"/></clipPath><clipPath id="b"><path d="M0 0h430v430H0z"/></clipPath></defs><g clip-path="url(#a)"><g fill="none" stroke-linecap="round" stroke-linejoin="round" stroke-width="12" clip-path="url(#b)" style="display:block"><path stroke="#08A88A" d="m238.169 227.505 56.94-13.847m-53.016-16.977 53.016-12.136" class="secondary"/><path stroke="#121331" d="M134.596 157.582s-13.17-3.101-25.284-20.972c-12.114-17.861-40.713-8.809-40.713-8.809s18.908-66.298 87.231-40.132l69.776-32.788-66.569 68.646s91.282.969 82.56 82.831c-4.497 42.137-16.931 44.947-10.176 84.71l38.28 84.372a54.92 54.92 0 0 1-28.589-8.363 54.86 54.86 0 0 1-20.041-22.029l-21.515-42.99m96.553 73.071V54.881M192.674 182.868l10.334 179.065s-83.086-117.572-80.243-178.137c0-19.308 15.653-34.961 34.961-34.961 18.97 0 34.413 15.193 34.948 34.033z" class="primary"/></g></g></svg>